# Blender v2.82 (sub 7) OBJ File: ''
# www.blender.org
mtllib helice.mtl
o Cube.006_Cube.007
v 0.000000 13.109670 1.106172
v -1.120110 13.109670 0.806032
v 0.300130 13.109670 2.226272
v 0.819970 13.109670 0.286192
v 12.021050 13.109660 3.287512
v -2.181340 13.109733 -10.914887
v 0.819970 12.490220 0.286192
v 0.819970 11.478330 0.286192
v 12.021050 12.490211 3.287512
v -2.181340 12.490282 -10.914887
v -1.120110 12.490220 0.806032
v 0.300130 12.490220 2.226272
v 0.300130 11.478330 2.226272
v 11.501200 12.490210 5.227592
v -7.899630 12.490149 10.426032
v -25.692289 12.706945 28.218689
v -9.319869 12.490149 9.005792
v -7.899630 13.109599 10.426032
v -25.692289 12.892785 28.218689
v -9.319869 13.109599 9.005792
v -27.112530 12.892786 26.798454
v -29.367800 12.892785 31.614262
v -27.112530 12.706945 26.798454
v -29.367800 12.706944 31.614262
v -29.227819 12.706944 31.754230
v -29.227819 12.892785 31.754230
v 35.806438 12.707008 11.740162
v 11.501200 13.109659 5.227592
v 35.806438 12.892848 11.740162
v 41.035709 12.892848 11.542762
v 36.326279 12.892848 9.800072
v 41.155922 12.892848 11.094172
v 36.326279 12.707009 9.800072
v 41.155922 12.707009 11.094172
v 41.035709 12.707008 11.542762
v -3.797970 12.965639 5.199242
v 5.357841 12.946520 2.669162
v 0.015010 10.680490 1.162172
v -1.120110 11.478330 0.806032
v -4.093080 12.965639 4.904132
v -1.629790 12.947480 -4.233778
v -0.056010 10.680490 1.091162
v -4.093080 12.579109 4.904132
v -1.629790 12.597271 -4.233778
v 0.000000 10.680490 1.106172
v 0.041000 10.680490 1.065172
v -1.258540 12.597271 -4.333258
v 5.421520 12.637150 2.431502
v 5.357841 12.637150 2.669162
v 5.421520 12.946520 2.431502
v -1.258540 12.947480 -4.333258
v -3.797970 12.579109 5.199242
v -4.121430 12.490281 -10.395048
v -10.633981 12.707096 -34.700279
v -4.121430 13.109733 -10.395048
v -10.633981 12.892925 -34.700279
v -11.928081 12.892926 -39.529911
v -8.693900 12.892925 -35.220119
v -11.769561 12.892926 -39.572376
v -8.693900 12.707096 -35.220119
v -11.769561 12.707097 -39.572376
v -11.928081 12.707097 -39.529911
vt 0.500000 0.444692
vt 0.532502 0.485691
vt 0.455601 0.459698
vt 0.511897 0.388686
vt 0.955888 0.238620
vt 0.976494 0.335624
vt 0.532502 0.124511
vt 0.532502 0.155483
vt 0.976494 0.155483
vt 0.976494 0.124510
vt 0.413535 1.045744
vt 0.336634 1.019752
vt 0.488656 0.155483
vt 0.488656 0.124511
vt 0.932648 0.124514
vt 0.932648 0.155487
vt 0.411754 0.124511
vt 0.411754 0.073916
vt 0.488656 0.073916
vt 0.455601 0.124511
vt 0.532502 0.073916
vt 0.455601 0.073916
vt 0.511897 0.388686
vt 0.532502 0.485691
vt 0.976494 0.335624
vt 0.955888 0.238620
vt 0.455601 0.459698
vt 0.336634 1.019752
vt 0.413535 1.045744
vt 0.468050 0.124511
vt 0.468050 0.073916
vt 0.511897 0.155483
vt 0.511897 0.124511
vt 0.955888 0.124510
vt 0.955888 0.155483
vt 0.186872 -0.021301
vt 0.130576 0.049711
vt 0.186872 0.155480
vt 0.186872 0.124507
vt -0.518399 0.155480
vt -0.518399 0.124507
vt -0.518399 -0.910935
vt -0.574695 -0.839923
vt 0.186872 0.978699
vt 0.130576 1.049711
vt -0.574695 0.160077
vt -0.518399 0.089065
vt 0.130576 0.049711
vt 0.186872 -0.021301
vt 0.143026 0.155480
vt 0.143026 0.124507
vt -0.562246 0.124507
vt -0.562246 0.155480
vt 0.455601 0.155483
vt 0.130576 0.124507
vt 0.130576 0.155480
vt 0.274367 0.089065
vt 0.218071 0.160077
vt 0.128676 -0.080713
vt 0.134225 -0.087711
vt 0.230521 0.155480
vt 0.230521 0.124507
vt 0.039630 0.124507
vt 0.039630 0.155480
vt 0.218071 0.160077
vt 0.274367 0.089065
vt 0.134225 -0.087711
vt 0.128676 -0.080713
vt 0.134225 0.124507
vt 0.134225 0.155480
vt 0.128676 0.155480
vt 0.128676 0.124507
vt 0.174225 0.124507
vt 0.174225 0.155480
vt 0.034082 0.155480
vt 0.034082 0.124507
vt 0.163122 0.155483
vt 0.163122 0.124510
vt 1.126541 0.124510
vt 1.126541 0.155483
vt 0.163122 0.238620
vt 0.183728 0.335624
vt 1.147146 0.009996
vt 1.126541 -0.087008
vt 0.183728 0.335624
vt 0.163122 0.238620
vt 1.126541 -0.087008
vt 1.147146 0.009996
vt 0.354380 0.009996
vt 0.333774 -0.087008
vt 0.541054 -0.077138
vt 0.545819 -0.054708
vt 0.333774 0.155483
vt 0.333774 0.124510
vt 0.541054 0.124510
vt 0.541054 0.155483
vt 0.354380 0.124510
vt 0.354380 0.155483
vt 0.545819 0.155483
vt 0.545819 0.124510
vt 0.183728 0.124510
vt 0.183728 0.155483
vt 1.147146 0.155483
vt 1.147146 0.124510
vt 0.333774 0.912992
vt 0.354380 1.009996
vt 0.545819 0.945292
vt 0.541054 0.922862
vt 0.853012 0.124510
vt 0.853012 0.155483
vt 0.835231 0.155483
vt 0.835231 0.124510
vt 0.511897 0.388686
vt 0.455601 0.459698
vt 0.337757 0.254794
vt 0.349455 0.240038
vt 0.500595 0.441891
vt 0.349455 0.240038
vt 0.532502 0.485691
vt 0.712376 0.366542
vt 0.714900 0.378425
vt 0.712376 0.366542
vt 0.497780 0.445442
vt 0.337757 0.254794
vt 0.450114 0.716663
vt 0.435398 0.711689
vt 0.435398 0.711689
vt 0.501625 0.446742
vt 0.450114 0.716663
vt 0.500000 0.444692
vt 0.714900 0.378425
vt 0.403619 0.147326
vt 0.394199 0.147326
vt 0.394199 0.131858
vt 0.403619 0.131858
vt 0.435398 0.147374
vt 0.450114 0.147374
vt 0.450114 0.129864
vt 0.435398 0.129864
vt 0.293911 0.148282
vt 0.305609 0.148282
vt 0.305609 0.128956
vt 0.293911 0.128956
vt 0.468050 0.155483
vt 0.912042 0.155487
vt 0.912042 0.124514
vt 0.119276 0.124514
vt 0.119276 0.155487
vt 1.082694 0.155487
vt 1.082694 0.124514
vt 0.413535 0.045744
vt 0.336634 0.019752
vt 0.078487 1.235014
vt 0.155388 1.261006
vt 0.336634 0.019752
vt 0.413535 0.045744
vt 0.155388 1.261006
vt 0.078487 1.235014
vt 0.871253 0.235014
vt 0.948155 0.261006
vt 0.826241 0.478619
vt 0.819957 0.476495
vt 0.289928 0.124514
vt 0.289928 0.155487
vt 0.481366 0.155487
vt 0.481366 0.124514
vt 0.310534 0.155487
vt 0.310534 0.124514
vt 0.483050 0.124514
vt 0.483050 0.155487
vt 0.139881 0.155487
vt 0.139881 0.124514
vt 1.103300 0.124514
vt 1.103300 0.155487
vt 0.155388 0.261006
vt 0.078487 0.235014
vt 0.027191 0.476495
vt 0.033474 0.478619
vt 0.826241 0.155487
vt 0.826241 0.124514
vt 0.819957 0.124514
vt 0.819957 0.155487
vn 0.0000 1.0000 0.0000
vn 0.2588 0.0000 -0.9659
vn 0.9659 0.0000 -0.2588
vn 0.9659 -0.0000 0.2588
vn -0.2588 0.0000 -0.9659
vn -0.0000 -1.0000 0.0000
vn -0.7071 -0.0000 0.7071
vn -0.2588 0.0000 0.9659
vn 0.7071 0.0000 0.7071
vn -0.0061 -1.0000 0.0061
vn -0.0061 1.0000 0.0061
vn -0.7071 0.0000 -0.7071
vn -0.9056 0.0000 -0.4241
vn 0.0083 -1.0000 0.0022
vn 0.0083 1.0000 0.0022
vn 0.0377 0.0000 0.9993
vn 0.2016 0.9585 -0.2016
vn 0.3050 -0.6761 0.6708
vn -0.2721 0.9595 -0.0729
vn 0.0993 -0.7027 0.7045
vn -0.6708 -0.6761 -0.3050
vn 0.0730 0.9594 0.2723
vn -0.7211 -0.6882 -0.0799
vn -0.2288 -0.9462 0.2288
vn -0.0845 -0.9452 -0.3153
vn 0.5846 -0.6882 -0.4297
vn 0.3211 -0.9431 0.0860
vn 0.4383 -0.7027 -0.5605
vn -0.9659 0.0000 0.2588
vn -0.0022 -1.0000 -0.0083
vn -0.0022 1.0000 -0.0083
vn 0.8167 0.0000 -0.5771
usemtl Dmetal
s off
f 1/1/1 4/2/1 2/3/1
f 1/1/1 2/3/1 3/4/1
f 1/1/1 3/4/1 4/2/1
f 4/2/1 3/4/1 28/5/1 5/6/1
f 7/7/2 4/8/2 5/9/2 9/10/2
f 2/3/1 4/2/1 6/11/1 55/12/1
f 4/13/3 7/14/3 10/15/3 6/16/3
f 7/14/4 12/17/4 13/18/4 8/19/4
f 11/20/5 7/7/5 8/21/5 39/22/5
f 12/23/6 7/24/6 9/25/6 14/26/6
f 7/24/6 11/27/6 53/28/6 10/29/6
f 12/17/7 11/30/7 39/31/7 13/18/7
f 3/32/8 12/33/8 14/34/8 28/35/8
f 11/27/6 12/23/6 15/36/6 17/37/6
f 12/33/9 3/32/9 18/38/9 15/39/9
f 15/39/9 18/38/9 19/40/9 16/41/9
f 17/37/10 15/36/10 16/42/10 23/43/10
f 18/44/11 20/45/11 21/46/11 19/47/11
f 3/4/1 2/3/1 20/48/1 18/49/1
f 20/50/12 17/51/12 23/52/12 21/53/12
f 2/54/12 11/20/12 17/55/12 20/56/12
f 19/57/1 21/58/1 22/59/1 26/60/1
f 21/61/13 23/62/13 24/63/13 22/64/13
f 23/65/6 16/66/6 25/67/6 24/68/6
f 25/69/7 26/70/7 22/71/7 24/72/7
f 16/73/9 19/74/9 26/75/9 25/76/9
f 28/77/8 14/78/8 27/79/8 29/80/8
f 14/81/14 9/82/14 33/83/14 27/84/14
f 5/85/15 28/86/15 29/87/15 31/88/15
f 31/89/1 29/90/1 30/91/1 32/92/1
f 29/93/16 27/94/16 35/95/16 30/96/16
f 33/97/2 31/98/2 32/99/2 34/100/2
f 9/101/2 5/102/2 31/103/2 33/104/2
f 27/105/6 33/106/6 34/107/6 35/108/6
f 34/109/4 32/110/4 30/111/4 35/112/4
f 13/113/17 39/114/17 40/115/17 36/116/17
f 38/117/18 13/113/18 36/116/18 52/118/18
f 8/119/19 13/113/19 37/120/19 50/121/19
f 13/113/20 38/117/20 49/122/20 37/120/20
f 39/114/21 42/123/21 43/124/21 40/115/21
f 39/114/22 8/119/22 51/125/22 41/126/22
f 42/123/23 39/114/23 41/126/23 44/127/23
f 42/123/24 38/117/24 52/118/24 43/124/24
f 46/128/25 42/123/25 44/127/25 47/129/25
f 42/123/6 46/128/6 45/130/6
f 45/130/6 38/117/6 42/123/6
f 8/119/26 46/128/26 47/129/26 51/125/26
f 38/117/27 46/128/27 48/131/27 49/122/27
f 46/128/28 8/119/28 50/121/28 48/131/28
f 45/130/6 46/128/6 38/117/6
f 50/132/4 37/133/4 49/134/4 48/135/4
f 41/136/5 51/137/5 47/138/5 44/139/5
f 36/140/7 40/141/7 43/142/7 52/143/7
f 11/30/29 2/144/29 55/145/29 53/146/29
f 53/147/29 55/148/29 56/149/29 54/150/29
f 10/151/30 53/152/30 54/153/30 60/154/30
f 55/155/31 6/156/31 58/157/31 56/158/31
f 56/159/1 58/160/1 59/161/1 57/162/1
f 54/163/29 56/164/29 57/165/29 62/166/29
f 58/167/32 60/168/32 61/169/32 59/170/32
f 6/171/3 10/172/3 60/173/3 58/174/3
f 60/175/6 54/176/6 62/177/6 61/178/6
f 59/179/5 61/180/5 62/181/5 57/182/5
