# Blender v2.82 (sub 7) OBJ File: ''
# www.blender.org
mtllib helicecola.mtl
o Cube.005_Cube.006
v 0.238687 -0.020435 -0.042945
v 0.184327 -0.228556 -1.001815
v 0.184327 0.990455 0.266505
v 0.184327 -0.766323 0.687735
v 0.238677 0.587904 5.160055
v 0.238727 -5.264075 -0.499585
v -0.106633 -0.766333 0.687735
v -0.813863 -0.369485 0.306115
v -0.160993 0.587904 5.160055
v -0.160943 -5.264075 -0.499585
v -0.106633 -0.228556 -0.623185
v -0.106633 0.990455 0.266505
v -0.813863 0.456388 0.084825
v -0.160993 2.239635 4.717475
v -0.161033 4.160916 -3.191675
v -0.161033 5.714905 -4.745645
v -0.161033 2.951767 -4.400825
v 0.238637 4.160916 -3.191675
v 0.238637 5.714905 -4.745645
v 0.238637 2.951767 -4.400825
v 0.238637 4.505755 -5.954795
v 0.238637 6.946327 -6.524275
v -0.161033 4.505755 -5.954795
v -0.161033 6.946327 -6.524275
v -0.161033 7.219936 -6.250675
v 0.238637 7.219936 -6.250675
v -0.161003 2.808425 6.840245
v 0.238677 2.239635 4.717475
v 0.238677 2.808425 6.840245
v 0.238677 2.218764 9.201755
v 0.238677 1.156695 7.282825
v 0.238677 1.707566 9.338735
v -0.161003 1.156695 7.282825
v -0.161003 1.707566 9.338735
v -0.161003 2.218764 9.201755
v 0.145757 1.721937 -1.659675
v 0.133417 0.644905 2.237815
v -1.328633 0.003416 -0.036555
v -0.813863 -0.148194 -0.519755
v 0.145757 1.596305 -1.785305
v 0.134037 -2.293566 -0.736715
v -1.328633 -0.026825 -0.066785
v -0.103633 1.596305 -1.785305
v -0.091913 -2.293566 -0.736715
v -1.328633 -0.020435 -0.042945
v -1.328633 -0.037883 -0.025485
v -0.091913 -2.335913 -0.578685
v -0.066183 0.543744 2.264925
v -0.066183 0.644905 2.237815
v 0.133417 0.543744 2.264925
v 0.134037 -2.335913 -0.578675
v -0.103633 1.721937 -1.659675
v -0.160943 -4.821485 -2.151315
v -0.160943 -6.944263 -2.720105
v 0.238727 -4.821485 -2.151315
v 0.238727 -6.944263 -2.720105
v 0.238727 -9.000166 -3.270985
v 0.238727 -7.386845 -1.068375
v 0.238727 -9.113086 -2.849565
v -0.160943 -7.386845 -1.068375
v -0.160943 -9.113086 -2.849565
v -0.160943 -9.000166 -3.270985
vt 0.147665 0.528238
vt 0.184960 0.491704
vt 0.158071 0.576182
vt 0.097120 0.512766
vt 0.534821 0.557043
vt 0.428119 0.576993
vt 0.387490 0.286126
vt 0.487311 0.265415
vt 0.568437 0.491704
vt 0.582984 0.491704
vt 0.585702 0.268089
vt 0.565718 0.268089
vt 0.490767 0.664022
vt 0.789900 0.650423
vt 0.753014 0.755635
vt 0.582984 0.184960
vt 0.568437 0.184960
vt 0.565721 0.409847
vt 0.585705 0.409847
vt 0.568437 0.097120
vt 0.533075 0.123824
vt 0.533075 0.165117
vt 0.568437 0.557250
vt 0.533075 0.510786
vt 0.533075 0.552079
vt 0.097120 0.512766
vt 0.184960 0.491704
vt 0.117248 0.268089
vt 0.034662 0.290218
vt 0.158071 0.557250
vt 0.387718 0.633657
vt 0.409847 0.551070
vt 0.568437 0.158071
vt 0.533075 0.154053
vt 0.582984 0.512766
vt 0.568437 0.512766
vt 0.565718 0.290218
vt 0.585702 0.290218
vt -0.061403 0.685675
vt -0.000945 0.746133
vt 0.585700 0.685675
vt 0.565717 0.685675
vt 0.565717 0.938597
vt 0.585700 0.938597
vt 0.585700 0.860898
vt 0.565716 0.860898
vt 0.999055 0.746133
vt 0.938597 0.685675
vt 0.860898 0.763374
vt 0.921355 0.823831
vt 0.211294 0.788677
vt 0.274197 0.873296
vt 0.167623 0.970908
vt 0.104557 0.885618
vt 0.585700 0.999055
vt 0.565717 0.999055
vt 0.565717 0.921355
vt 0.585700 0.921355
vt -0.000945 0.746133
vt 0.014285 1.000000
vt 0.000000 0.980580
vt 0.565717 0.799327
vt 0.585700 0.799327
vt 0.785647 0.838625
vt 0.799327 0.852305
vt 0.565717 0.838625
vt 0.585700 0.838625
vt 0.585700 0.852305
vt 0.565717 0.852305
vt 0.585700 0.785647
vt 0.565717 0.785647
vt 0.565718 0.184079
vt 0.585702 0.184079
vt 0.088809 0.161950
vt 0.006222 0.184079
vt 0.370277 0.150182
vt 0.469669 0.129958
vt 0.422170 0.006104
vt 0.452743 0.000000
vt 0.565718 0.066003
vt 0.585702 0.066003
vt 0.565718 0.161950
vt 0.585702 0.161950
vt 0.585702 0.059155
vt 0.565718 0.059155
vt 0.061265 0.059155
vt 0.035705 0.066003
vt 0.565718 0.061265
vt 0.585702 0.061265
vt 0.585702 0.035705
vt 0.565718 0.035705
vt 0.123824 0.521850
vt 0.154053 0.552079
vt 0.066828 0.615356
vt 0.060547 0.609075
vt 0.507337 0.527919
vt 0.533075 0.521850
vt 0.581056 0.609075
vt 0.568587 0.609075
vt 0.165117 0.510786
vt 0.114398 0.414200
vt 0.119456 0.412845
vt 0.570459 0.414200
vt 0.580439 0.414200
vt 0.507337 0.147984
vt 0.568587 0.066828
vt 0.581056 0.066828
vt 0.263439 0.555025
vt 0.261322 0.562927
vt 0.580470 0.261322
vt 0.569172 0.261322
vt 0.147984 0.529430
vt 0.146473 0.527919
vt 0.060547 0.609075
vt 0.066828 0.615357
vt 0.148537 0.527366
vt 0.261322 0.562927
vt 0.263439 0.555025
vt 0.147665 0.528238
vt 0.119456 0.412845
vt 0.114398 0.414200
vt 0.580439 0.119456
vt 0.580439 0.114398
vt 0.570459 0.114398
vt 0.570459 0.119456
vt 0.580470 0.562927
vt 0.580470 0.555025
vt 0.569172 0.555025
vt 0.569172 0.562927
vt 0.581056 0.060547
vt 0.568587 0.060547
vt 0.387718 0.633657
vt 0.565721 0.387718
vt 0.585705 0.387718
vt 0.585705 0.493856
vt 0.565721 0.493856
vt 0.493856 0.662097
vt 0.515985 0.579510
vt 0.910217 0.695533
vt 0.873931 0.800876
vt 1.000000 0.817622
vt 0.990857 0.844625
vt 0.585705 0.596652
vt 0.565721 0.596652
vt 0.585705 0.579510
vt 0.565721 0.579510
vt 0.565721 0.668569
vt 0.585705 0.668569
vt 0.565721 0.515985
vt 0.585705 0.515985
vt 0.596652 0.689641
vt 0.602297 0.668569
vt 0.565721 0.689641
vt 0.585705 0.689641
vn 0.9939 -0.1053 -0.0335
vn 0.9945 0.0758 -0.0728
vn 0.9949 0.0235 0.0980
vn 0.9999 -0.0029 -0.0113
vn 0.0000 -0.9571 0.2898
vn 0.9999 0.0111 0.0033
vn 0.0000 -0.2552 0.9669
vn -0.3793 0.2234 0.8979
vn -0.2444 -0.9137 -0.3246
vn -0.9999 -0.0029 -0.0113
vn -0.9999 0.0109 0.0036
vn -0.1585 0.6258 -0.7637
vn 0.0000 0.9628 -0.2702
vn -0.9999 -0.0074 0.0085
vn 0.0000 0.7371 0.6758
vn 0.0000 0.7071 0.7071
vn -1.0000 0.0000 0.0000
vn 1.0000 0.0000 0.0000
vn 0.9999 -0.0083 0.0081
vn 0.0000 -0.7071 -0.7071
vn -0.3417 -0.7033 -0.6233
vn 0.0000 -0.2272 -0.9738
vn 0.0000 0.7071 -0.7071
vn 0.0000 0.9659 -0.2588
vn 0.0000 0.9702 0.2423
vn 0.0000 -0.9659 0.2588
vn 0.0000 0.2588 0.9659
vn 0.9116 -0.2906 0.2906
vn -0.5179 0.7787 0.3541
vn 0.9136 -0.1052 -0.3928
vn -0.5459 0.8296 0.1169
vn -0.5179 -0.3541 -0.7787
vn 0.9135 0.3930 0.1053
vn -0.5305 -0.0933 -0.8425
vn -0.8878 0.3254 -0.3255
vn -0.8860 -0.4479 -0.1200
vn -0.5305 -0.5021 0.6830
vn -0.8820 0.1220 0.4552
vn -0.5459 -0.6600 0.5161
vn 0.0000 0.2589 0.9659
vn 0.0000 -0.9659 -0.2588
vn -0.4658 0.2476 -0.8496
vn 0.0000 0.2588 -0.9659
vn 0.0000 -0.7181 0.6959
vn 0.0000 -0.2588 0.9659
usemtl Dmetal
s off
f 1/1/1 4/2/1 2/3/1
f 1/1/2 2/3/2 3/4/2
f 1/1/3 3/4/3 4/2/3
f 4/5/4 3/6/4 28/7/4 5/8/4
f 7/9/5 4/10/5 5/11/5 9/12/5
f 2/13/6 4/5/6 6/14/6 55/15/6
f 4/16/7 7/17/7 10/18/7 6/19/7
f 7/17/8 12/20/8 13/21/8 8/22/8
f 11/23/9 7/9/9 8/24/9 39/25/9
f 12/26/10 7/27/10 9/28/10 14/29/10
f 7/27/11 11/30/11 53/31/11 10/32/11
f 12/20/12 11/33/12 39/34/12 13/21/12
f 3/35/13 12/36/13 14/37/13 28/38/13
f 11/30/14 12/26/14 15/39/14 17/40/14
f 12/36/15 3/35/15 18/41/15 15/42/15
f 15/43/16 18/44/16 19/45/16 16/46/16
f 17/47/17 15/48/17 16/49/17 23/50/17
f 18/51/18 20/52/18 21/53/18 19/54/18
f 3/6/19 2/13/19 20/52/19 18/51/19
f 20/55/20 17/56/20 23/57/20 21/58/20
f 2/3/21 11/30/21 17/40/21 20/59/21
f 19/54/18 21/53/18 22/60/18 26/61/18
f 21/58/22 23/57/22 24/62/22 22/63/22
f 23/50/17 16/49/17 25/64/17 24/65/17
f 25/66/23 26/67/23 22/68/23 24/69/23
f 16/46/16 19/45/16 26/70/16 25/71/16
f 28/38/24 14/37/24 27/72/24 29/73/24
f 14/29/17 9/28/17 33/74/17 27/75/17
f 5/8/18 28/7/18 29/76/18 31/77/18
f 31/77/18 29/76/18 30/78/18 32/79/18
f 29/73/25 27/72/25 35/80/25 30/81/25
f 33/82/26 31/83/26 32/84/26 34/85/26
f 9/12/26 5/11/26 31/83/26 33/82/26
f 27/75/17 33/74/17 34/86/17 35/87/17
f 34/88/27 32/89/27 30/90/27 35/91/27
f 13/92/28 39/93/28 40/94/28 36/95/28
f 38/96/29 13/97/29 36/98/29 52/99/29
f 8/100/30 13/92/30 37/101/30 50/102/30
f 13/97/31 38/96/31 49/103/31 37/104/31
f 39/34/32 42/105/32 43/106/32 40/107/32
f 39/93/33 8/100/33 51/108/33 41/109/33
f 42/105/34 39/34/34 41/110/34 44/111/34
f 42/112/35 38/113/35 52/114/35 43/115/35
f 46/116/36 42/112/36 44/117/36 47/118/36
f 42/112/17 46/116/17 45/119/17
f 45/119/17 38/113/17 42/112/17
f 8/100/37 46/116/37 47/118/37 51/108/37
f 38/113/38 46/116/38 48/120/38 49/121/38
f 46/116/39 8/100/39 50/102/39 48/120/39
f 45/119/17 46/116/17 38/113/17
f 50/122/40 37/123/40 49/124/40 48/125/40
f 41/126/41 51/127/41 47/128/41 44/129/41
f 36/130/23 40/107/23 43/106/23 52/131/23
f 11/30/42 2/3/42 55/132/42 53/31/42
f 53/133/43 55/134/43 56/135/43 54/136/43
f 10/32/17 53/31/17 54/137/17 60/138/17
f 55/15/18 6/14/18 58/139/18 56/140/18
f 56/140/18 58/139/18 59/141/18 57/142/18
f 54/136/43 56/135/43 57/143/43 62/144/43
f 58/145/44 60/146/44 61/147/44 59/148/44
f 6/19/45 10/18/45 60/149/45 58/150/45
f 60/138/17 54/137/17 62/151/17 61/152/17
f 59/148/41 61/147/41 62/153/41 57/154/41
